<?xml version="1.0" standalone="no"?>
<!DOCTYPE svg PUBLIC "-//W3C//DTD SVG 20010904//EN"
 "http://www.w3.org/TR/2001/REC-SVG-20010904/DTD/svg10.dtd">
<svg version="1.0" xmlns="http://www.w3.org/2000/svg"
 width="500.000000pt" height="500.000000pt" viewBox="0 0 500.000000 500.000000"
 preserveAspectRatio="xMidYMid meet">

<g transform="translate(0.000000,500.000000) scale(0.100000,-0.100000)"
fill="#000000" stroke="none">
<path d="M0 2500 l0 -2500 2500 0 2500 0 0 2500 0 2500 -2500 0 -2500 0 0
-2500z m3155 1540 c16 -51 28 -50 -626 -50 l-609 0 0 -120 0 -119 73 -3 72 -3
3 -52 3 -52 147 96 c81 52 170 111 199 129 68 45 77 48 105 33 13 -6 265 -167
561 -357 496 -319 537 -347 537 -372 0 -16 -7 -30 -16 -34 -9 -3 -78 -6 -155
-6 l-139 0 0 -543 0 -543 86 -42 c48 -24 87 -42 89 -40 1 2 10 37 20 78 22 93
86 282 125 366 30 68 30 72 -10 49 -32 -18 -41 -18 -34 0 10 26 -5 17 -62 -36
l-54 -52 0 29 c0 29 32 92 53 106 6 4 9 9 7 11 -6 6 -120 -9 -142 -18 -31 -13
-19 11 26 53 27 25 58 43 80 47 20 4 36 11 36 15 0 5 -35 15 -77 23 -78 14
-78 14 -48 28 17 7 64 13 107 14 42 0 74 3 72 7 -2 3 -25 20 -51 37 l-46 31
37 0 c49 0 101 -23 136 -60 l29 -31 14 28 c20 38 53 67 68 58 7 -5 10 -27 7
-61 l-5 -54 32 6 c43 8 108 -11 142 -41 l28 -24 -70 5 c-64 5 -68 4 -45 -8 57
-32 79 -51 104 -88 32 -49 34 -68 4 -46 -28 20 -115 66 -124 66 -4 0 2 -10 14
-23 30 -32 52 -90 52 -138 l0 -42 -60 64 -59 64 -1 -50 c0 -34 -7 -61 -22 -85
l-23 -35 -2 30 c-11 116 -15 137 -26 126 -8 -8 -15 -3 -27 20 l-17 31 -21 -78
c-33 -117 -51 -203 -67 -317 -21 -145 -20 -161 10 -177 31 -17 33 -55 4 -70
-17 -9 -33 -4 -97 34 -512 300 -1092 348 -1684 140 -57 -20 -171 -69 -255
-109 -139 -67 -153 -72 -172 -58 -29 20 -26 37 11 66 l31 25 -12 104 c-15 122
-42 260 -73 364 l-22 76 -16 -33 c-13 -24 -19 -29 -26 -18 -11 18 -21 -25 -23
-100 -1 -45 -3 -52 -15 -41 -20 16 -39 77 -38 120 l1 35 -60 -65 -59 -65 0 43
c0 46 21 105 47 134 30 33 7 28 -60 -12 -36 -22 -68 -40 -71 -40 -19 0 62 103
102 130 l47 32 -65 -6 -65 -5 30 24 c37 31 98 49 141 40 l33 -6 -6 54 c-4 37
-2 57 6 62 15 9 48 -20 68 -58 l14 -28 29 31 c35 37 87 60 137 60 l37 0 -46
-29 c-25 -16 -48 -33 -51 -38 -3 -4 29 -8 71 -8 43 -1 90 -7 107 -14 l30 -14
-45 -8 c-25 -5 -60 -11 -77 -14 -42 -8 -42 -21 -1 -29 43 -8 92 -43 114 -80
16 -28 16 -29 0 -23 -22 9 -48 14 -104 22 l-42 5 26 -39 c26 -39 48 -111 35
-111 -4 0 -25 18 -46 41 -48 49 -81 70 -72 45 8 -19 0 -20 -33 -1 -40 23 -40
19 -10 -49 40 -87 103 -275 125 -368 10 -43 23 -78 27 -78 5 0 43 15 84 34
l74 35 0 550 0 551 -145 0 -145 0 -12 25 c-15 33 -10 38 165 150 l137 87 0
167 c0 117 4 171 12 179 7 7 40 12 80 12 l68 0 0 148 c0 82 3 152 7 155 3 4
298 7 654 7 644 0 648 0 654 -20z m-157 -2179 c8 -51 4 -51 -504 -51 -416 0
-474 2 -488 16 -9 8 -16 21 -16 28 0 35 14 36 515 34 l490 -3 3 -24z m-1184
-311 c38 -14 54 -55 35 -89 -13 -24 -13 -28 3 -43 18 -18 24 -64 10 -84 -15
-23 -53 -34 -121 -34 l-71 0 0 130 0 130 59 0 c33 0 71 -4 85 -10z m283 -10
c40 -24 63 -67 63 -119 0 -51 -45 -106 -101 -122 -74 -23 -160 31 -175 110 -8
39 26 110 63 133 38 24 110 23 150 -2z m290 0 c98 -60 75 -208 -39 -242 -98
-29 -203 76 -168 168 13 35 47 73 75 84 36 15 99 11 132 -10z m145 -46 l3 -66
53 66 c39 49 59 66 77 66 14 0 25 -3 25 -6 0 -3 -18 -28 -40 -54 -22 -26 -40
-52 -40 -57 0 -6 23 -40 50 -77 l51 -66 -34 0 c-25 0 -37 6 -50 28 -9 15 -25
38 -36 52 l-20 25 -18 -25 c-18 -25 -20 -30 -22 -62 -1 -12 -9 -18 -26 -18
l-25 0 0 123 c0 68 3 127 7 130 3 4 14 7 24 7 15 0 19 -10 21 -66z m246 -66
l3 -128 -26 0 -25 0 0 131 c0 130 0 130 23 127 21 -3 22 -7 25 -130z m152 47
l65 -86 3 86 c3 83 3 85 27 85 l25 0 0 -130 c0 -128 0 -130 -22 -130 -17 1
-40 23 -82 80 -33 44 -63 80 -68 80 -4 0 -8 -36 -8 -80 0 -79 0 -80 -25 -80
l-25 0 0 123 c0 68 3 127 7 130 18 19 44 -1 103 -78z m360 70 c16 -9 37 -29
45 -45 l16 -30 -31 0 c-16 0 -30 5 -30 11 0 5 -16 17 -36 25 -48 20 -91 4
-109 -40 -39 -92 65 -168 133 -98 l27 27 -42 3 c-35 3 -43 7 -43 23 0 17 7 19
65 19 65 0 65 0 65 -29 0 -70 -81 -130 -156 -116 -49 9 -99 59 -108 108 -9 48
20 114 61 139 35 22 104 23 143 3z m-1326 -416 c34 -16 52 -60 35 -91 -16 -31
-28 -38 -66 -38 -22 0 -38 8 -52 26 -28 36 -26 50 8 85 33 32 39 34 75 18z
m516 -24 c0 -13 -6 -25 -12 -28 -10 -3 -10 -7 1 -20 13 -16 14 -16 26 0 12 16
13 13 12 -18 l-1 -36 -50 1 c-45 1 -51 4 -54 24 -2 13 1 29 7 36 6 8 8 21 5
31 -9 22 19 45 46 38 13 -3 20 -14 20 -28z m-730 0 c0 -22 4 -25 35 -25 31 0
35 3 35 25 0 14 5 25 10 25 6 0 10 -28 10 -65 0 -37 -4 -65 -10 -65 -5 0 -10
14 -10 30 0 28 -3 30 -35 30 -32 0 -35 -2 -35 -30 0 -16 -4 -30 -10 -30 -6 0
-10 28 -10 65 0 37 4 65 10 65 6 0 10 -11 10 -25z m370 15 c0 -5 -9 -10 -20
-10 -18 0 -20 -7 -20 -55 0 -30 -4 -55 -10 -55 -5 0 -10 25 -10 55 0 48 -2 55
-20 55 -11 0 -20 5 -20 10 0 6 23 10 50 10 28 0 50 -4 50 -10z m110 0 c0 -5
-16 -10 -35 -10 -24 0 -35 -5 -35 -15 0 -10 10 -15 30 -15 17 0 30 -4 30 -10
0 -5 -13 -10 -30 -10 -23 0 -30 -4 -30 -20 0 -16 7 -20 35 -20 19 0 35 -4 35
-10 0 -5 -20 -10 -45 -10 l-45 0 0 65 0 65 45 0 c25 0 45 -4 45 -10z m40 -45
c0 -54 0 -55 29 -55 17 0 33 -4 36 -10 4 -6 -12 -10 -39 -10 l-46 0 0 65 c0
37 4 65 10 65 6 0 10 -25 10 -55z m410 45 c0 -5 -9 -10 -20 -10 -18 0 -20 -7
-20 -55 0 -30 -4 -55 -10 -55 -5 0 -10 25 -10 55 0 48 -2 55 -20 55 -11 0 -20
5 -20 10 0 6 23 10 50 10 28 0 50 -4 50 -10z m118 -27 c2 -20 -1 -33 -8 -33
-7 0 -9 -7 -6 -15 3 -8 9 -22 12 -30 11 -26 -16 -16 -28 10 -6 14 -19 25 -30
25 -13 0 -18 -7 -18 -25 0 -14 -4 -25 -10 -25 -6 0 -10 29 -10 66 l0 65 48 -3
c45 -3 47 -4 50 -35z m116 -24 c26 -60 27 -91 2 -56 -17 22 -76 24 -76 2 0 -8
-6 -15 -14 -15 -12 0 -9 14 12 65 15 36 32 65 38 65 6 0 23 -28 38 -61z m70
10 l22 -51 22 51 c11 28 26 51 32 51 6 0 4 -14 -6 -37 -9 -21 -20 -50 -26 -65
-5 -16 -16 -28 -23 -28 -7 0 -18 12 -23 28 -6 15 -17 44 -26 65 -10 23 -12 37
-6 37 6 0 21 -23 34 -51z m196 41 c0 -5 -16 -10 -35 -10 -24 0 -35 -5 -35 -15
0 -10 10 -15 30 -15 17 0 30 -4 30 -10 0 -5 -13 -10 -30 -10 -23 0 -30 -4 -30
-20 0 -16 7 -20 35 -20 19 0 35 -4 35 -10 0 -5 -20 -10 -45 -10 l-45 0 0 65 0
65 45 0 c25 0 45 -4 45 -10z m40 -45 c0 -54 0 -55 29 -55 17 0 33 -4 36 -10 4
-6 -12 -10 -39 -10 l-46 0 0 65 c0 37 4 65 10 65 6 0 10 -25 10 -55z"/>
<path d="M2475 3811 c-5 -5 -86 -58 -180 -118 -93 -60 -299 -192 -457 -294
l-287 -184 102 -5 102 -5 3 -574 c2 -540 3 -573 20 -566 35 14 201 64 263 79
221 54 543 72 756 42 118 -17 311 -64 377 -91 20 -8 40 -15 46 -15 7 0 10 180
10 554 0 443 3 556 13 564 7 6 55 13 107 14 l94 3 -219 141 c-121 78 -330 212
-465 299 -135 87 -252 160 -260 162 -8 2 -19 0 -25 -6z m363 -693 c15 -15 17
-645 2 -668 -8 -13 -58 -15 -330 -18 -214 -2 -326 1 -340 8 -19 10 -20 20 -20
344 0 183 3 336 7 339 3 4 155 7 338 7 244 0 334 -3 343 -12z"/>
<path d="M2230 2940 l0 -110 115 0 115 0 0 110 0 110 -115 0 -115 0 0 -110z"/>
<path d="M2540 2940 l0 -110 115 0 115 0 0 110 0 110 -115 0 -115 0 0 -110z"/>
<path d="M2230 2625 l0 -115 115 0 115 0 0 115 0 115 -115 0 -115 0 0 -115z"/>
<path d="M2540 2625 l0 -115 115 0 115 0 0 115 0 115 -115 0 -115 0 0 -115z"/>
<path d="M1760 3565 c0 -63 2 -115 5 -115 3 0 55 32 115 71 l110 71 0 44 0 44
-115 0 -115 0 0 -115z"/>
<path d="M1720 1480 c0 -27 3 -30 34 -30 38 0 60 19 50 44 -4 11 -18 16 -45
16 -37 0 -39 -2 -39 -30z"/>
<path d="M1720 1374 c0 -35 0 -35 41 -32 45 3 67 24 56 52 -5 11 -19 16 -52
16 -45 0 -45 0 -45 -36z"/>
<path d="M1984 1506 c-57 -25 -65 -108 -15 -147 34 -27 97 -21 123 13 25 32
23 82 -4 112 -29 32 -64 39 -104 22z"/>
<path d="M2269 1505 c-31 -17 -49 -60 -42 -99 7 -32 47 -66 80 -66 31 0 79 25
87 45 31 81 -53 161 -125 120z"/>
<path d="M1913 1109 c-26 -9 -32 -56 -11 -77 19 -19 55 -14 72 9 28 41 -12 86
-61 68z"/>
<path d="M2437 1113 c-12 -11 -8 -23 8 -23 8 0 15 7 15 15 0 16 -12 20 -23 8z"/>
<path d="M2424 1046 c-9 -23 9 -41 30 -29 15 8 15 11 -3 27 -19 17 -21 18 -27
2z"/>
<path d="M2720 1090 c0 -16 7 -20 30 -20 23 0 30 4 30 20 0 16 -7 20 -30 20
-23 0 -30 -4 -30 -20z"/>
<path d="M2867 1079 c-7 -27 -4 -32 17 -27 12 2 13 7 2 27 l-13 23 -6 -23z"/>
</g>
</svg>
